<svg xmlns="http://www.w3.org/2000/svg" width="22.863" height="19.418" viewBox="0 0 22.863 19.418">
  <g id="Dashboard" transform="translate(0 0)">
    <g id="Group_2" data-name="Group 2" transform="translate(0 0)">
      <path id="Path_4" data-name="Path 4" d="M33,305.285v3.706a.414.414,0,0,0,.413.413h2.865a.414.414,0,0,0,.413-.413v-6.52l-2.081,2.081A2.524,2.524,0,0,1,33,305.285Z" transform="translate(-31.45 -289.986)" fill="#2b7bec"/>
      <path id="Path_5" data-name="Path 5" d="M142,301.471v6.567a.414.414,0,0,0,.413.413h2.865a.414.414,0,0,0,.413-.413v-3.866a2.5,2.5,0,0,1-1.724-.733Z" transform="translate(-135.33 -289.033)" fill="#2b7bec"/>
      <path id="Path_6" data-name="Path 6" d="M251,276.983v4.274a.414.414,0,0,0,.413.413h2.865a.414.414,0,0,0,.413-.413v-7.887l-3.283,3.283A2.457,2.457,0,0,1,251,276.983Z" transform="translate(-239.21 -262.253)" fill="#2b7bec"/>
      <path id="Path_7" data-name="Path 7" d="M363.415,170.171,360,173.586v9.319a.414.414,0,0,0,.413.413h2.865a.414.414,0,0,0,.413-.413V170.429c-.094-.08-.164-.15-.216-.2Z" transform="translate(-343.09 -163.9)" fill="#2b7bec"/>
      <path id="Path_8" data-name="Path 8" d="M22.669,36.892a.8.8,0,0,0-.606-.221h-.075c-1.334.061-2.663.127-4,.188a.863.863,0,0,0-.615.211.7.7,0,0,0-.146.216.691.691,0,0,0,.211.836l.333.338c.23.235.465.47.7.7l-8.06,8.065L6.792,43.6a1.151,1.151,0,0,0-1.63,0L.338,48.423a1.151,1.151,0,0,0,0,1.63l.216.216a1.151,1.151,0,0,0,1.63,0l3.791-3.791L9.6,50.1a1.157,1.157,0,0,0,1.635,0l9.094-9.094,1.029,1.024a.779.779,0,0,0,.55.291.68.68,0,0,0,.329-.089.9.9,0,0,0,.2-.146.955.955,0,0,0,.249-.662c.038-.864.08-1.729.122-2.6l.061-1.3A.808.808,0,0,0,22.669,36.892Z" transform="translate(0 -36.671)" fill="#2b7bec"/>
    </g>
  </g>
</svg>
