<svg xmlns="http://www.w3.org/2000/svg" width="14.894" height="20.028" viewBox="0 0 14.894 20.028">
  <g id="logout" transform="translate(14.894 0) rotate(90)">
    <path id="XMLID_4_" d="M3.108,4.552H13.655a.91.91,0,0,0,0-1.821H3.108L4.285,1.554A.91.91,0,1,0,3,.267L.267,3c-.021.021-.041.043-.06.066l-.013.017c-.014.018-.028.035-.04.054l-.01.017c-.013.02-.025.039-.036.06L.1,3.224c-.011.022-.023.045-.032.068l0,.009c-.01.025-.019.049-.027.075l0,.01c-.007.025-.014.05-.019.076,0,.008,0,.016,0,.023s-.008.043-.01.065a.9.9,0,0,0,0,.182c0,.022.006.044.01.066s0,.015,0,.023c.005.026.012.052.019.077l0,.009c.008.026.017.051.027.076l0,.008c.01.023.021.046.032.069l.006.012c.011.021.023.041.036.06l.01.016c.013.019.026.037.04.054l.013.017c.019.023.039.045.06.066L3,7.016A.91.91,0,0,0,4.285,5.729Z" transform="translate(0 3.805)" fill="#fff"/>
    <path id="XMLID_5_" d="M6.339,0A7.441,7.441,0,0,0,.155,3.3.91.91,0,0,0,1.666,4.313a5.626,5.626,0,1,1,.008,6.279A.91.91,0,0,0,.165,11.611,7.447,7.447,0,1,0,6.339,0Z" transform="translate(6.242)" fill="#fff"/>
  </g>
</svg>
