<svg xmlns="http://www.w3.org/2000/svg" width="19.891" height="19.891" viewBox="0 0 19.891 19.891">
  <g id="settings" transform="translate(0 0)">
    <g id="Group_1" data-name="Group 1" transform="translate(0 0)">
      <path id="Path_2" data-name="Path 2" d="M18.873,7.858l-1.4-.237a7.884,7.884,0,0,0-.561-1.355l.823-1.151a1.225,1.225,0,0,0-.133-1.583L16.367,2.295a1.22,1.22,0,0,0-.868-.361,1.207,1.207,0,0,0-.711.229l-1.155.823a7.8,7.8,0,0,0-1.4-.578L12,1.027A1.227,1.227,0,0,0,10.783,0H9.033A1.227,1.227,0,0,0,7.82,1.027L7.579,2.44a7.689,7.689,0,0,0-1.35.569L5.086,2.187A1.227,1.227,0,0,0,3.5,2.32L2.26,3.558a1.23,1.23,0,0,0-.133,1.583l.831,1.168a7.7,7.7,0,0,0-.553,1.359L1.026,7.9A1.227,1.227,0,0,0,0,9.113v1.749a1.227,1.227,0,0,0,1.026,1.213l1.413.241a7.689,7.689,0,0,0,.569,1.35L2.19,14.806a1.225,1.225,0,0,0,.133,1.583l1.238,1.238a1.22,1.22,0,0,0,.868.361,1.207,1.207,0,0,0,.711-.229l1.168-.831a7.86,7.86,0,0,0,1.313.54l.233,1.4a1.227,1.227,0,0,0,1.213,1.026H10.82a1.227,1.227,0,0,0,1.213-1.026l.237-1.4a7.883,7.883,0,0,0,1.355-.561l1.151.823a1.22,1.22,0,0,0,.715.229h0a1.22,1.22,0,0,0,.868-.361L17.6,16.36a1.23,1.23,0,0,0,.133-1.583l-.823-1.155a7.826,7.826,0,0,0,.561-1.355l1.4-.233a1.227,1.227,0,0,0,1.026-1.213V9.072A1.213,1.213,0,0,0,18.873,7.858Zm-.1,2.963a.108.108,0,0,1-.091.108l-1.745.291a.558.558,0,0,0-.449.411,6.652,6.652,0,0,1-.723,1.741.562.562,0,0,0,.025.611l1.026,1.446a.113.113,0,0,1-.012.141l-1.238,1.238a.106.106,0,0,1-.079.033.1.1,0,0,1-.062-.021l-1.442-1.026a.561.561,0,0,0-.611-.025,6.652,6.652,0,0,1-1.741.723.552.552,0,0,0-.411.449l-.3,1.745a.108.108,0,0,1-.108.091H9.071a.108.108,0,0,1-.108-.091l-.291-1.745a.558.558,0,0,0-.411-.449,6.907,6.907,0,0,1-1.7-.7.575.575,0,0,0-.283-.075.547.547,0,0,0-.324.1L4.5,16.858a.124.124,0,0,1-.062.021.111.111,0,0,1-.079-.033L3.116,15.608a.113.113,0,0,1-.012-.141l1.022-1.434a.569.569,0,0,0,.025-.615,6.589,6.589,0,0,1-.731-1.737.569.569,0,0,0-.449-.411l-1.758-.3a.108.108,0,0,1-.091-.108V9.113a.108.108,0,0,1,.091-.108l1.733-.291A.562.562,0,0,0,3.4,8.3a6.645,6.645,0,0,1,.711-1.745.555.555,0,0,0-.029-.607L3.046,4.493a.113.113,0,0,1,.012-.141L4.3,3.113a.106.106,0,0,1,.079-.033.1.1,0,0,1,.062.021L5.871,4.123a.569.569,0,0,0,.615.025,6.589,6.589,0,0,1,1.737-.731.569.569,0,0,0,.411-.449l.3-1.758a.108.108,0,0,1,.108-.091h1.749a.108.108,0,0,1,.108.091l.291,1.733a.562.562,0,0,0,.416.453,6.744,6.744,0,0,1,1.783.731A.562.562,0,0,0,14,4.1l1.434-1.03a.124.124,0,0,1,.062-.021.111.111,0,0,1,.079.033l1.238,1.238a.113.113,0,0,1,.012.141L15.8,5.905a.561.561,0,0,0-.025.611A6.652,6.652,0,0,1,16.5,8.257a.552.552,0,0,0,.449.411l1.745.3a.108.108,0,0,1,.091.108v1.749Z" transform="translate(0 -0.001)" fill="#fff"/>
      <path id="Path_3" data-name="Path 3" d="M140.392,136a4.292,4.292,0,1,0,4.292,4.292A4.295,4.295,0,0,0,140.392,136Zm0,7.463a3.17,3.17,0,1,1,3.17-3.17A3.172,3.172,0,0,1,140.392,143.464Z" transform="translate(-130.445 -130.35)" fill="#fff"/>
    </g>
  </g>
</svg>
