<svg xmlns="http://www.w3.org/2000/svg" width="14.184" height="17.335" viewBox="0 0 14.184 17.335">
  <g id="Team_Members" data-name="Team Members" transform="translate(0 0)">
    <g id="content-paste" transform="translate(0)">
      <path id="Path_11" data-name="Path 11" d="M63.607,1.576H60.3a2.332,2.332,0,0,0-4.413,0H52.576A1.581,1.581,0,0,0,51,3.152V15.759a1.581,1.581,0,0,0,1.576,1.576H63.607a1.581,1.581,0,0,0,1.576-1.576V3.152A1.581,1.581,0,0,0,63.607,1.576Zm-5.516,0a.744.744,0,0,1,.788.788.788.788,0,0,1-1.576,0A.744.744,0,0,1,58.092,1.576Zm5.516,14.183H52.576V3.152h1.576V5.516h7.88V3.152h1.576Z" transform="translate(-51)" fill="#fff"/>
    </g>
  </g>
</svg>
